<svg width="181" height="28" viewBox="0 0 181 28" fill="none" xmlns="http://www.w3.org/2000/svg">
<g clip-path="url(#clip0_0_39)">
<path fill-rule="evenodd" clip-rule="evenodd" d="M12.0713 0.105957C13.2334 -0.0504825 15.3031 0.161291 16.4483 0.432128C19.1492 1.07108 20.8101 2.87581 22.0801 5.25244C22.5071 6.05144 22.8769 6.90492 23.3477 7.68115C23.9242 6.46303 25.2174 2.02026 25.6592 0.54248L30.9082 0.546386L30.8994 1.94971C29.0191 4.56282 27.5863 7.65292 26.2197 10.5601C25.8047 11.4428 25.2729 12.3852 25.0361 13.3325C24.6537 14.8636 26.1342 21.9402 27.0596 23.4634C27.3964 24.0176 27.8682 24.6038 28.5264 24.7603C29.9434 25.0972 31.1299 24.2569 32.2686 23.5503L33.4776 25.269C31.6008 26.7078 30.325 27.2993 28.0625 27.8188C22.6433 28.7818 21.7428 23.8344 20.8916 19.8433C20.0781 21.1803 19.4177 22.2061 18.4649 23.4741C15.1182 27.9279 8.94941 29.5625 4.35549 25.9351C1.72808 23.7359 0.886572 20.536 0.489275 17.2964C-0.500013 9.22956 3.12882 0.996994 12.0713 0.105957ZM19.9736 10.6948C19.3083 7.08105 17.7515 1.98272 13.0889 2.33643C11.3068 2.5058 10.037 3.08955 8.88869 4.51807C6.56839 7.40443 6.14278 11.0943 6.16799 14.6841C6.19563 18.5984 6.94944 24.902 12.2559 24.4907C12.6331 24.4614 13.0731 24.3687 13.4512 24.3003C16.0071 23.4164 17.4863 21.6042 18.6641 19.1978C19.4203 17.4926 20.269 15.4946 20.4082 13.6265C20.4641 12.8749 20.1164 11.4702 19.9736 10.6948Z" fill="white"/>
<path d="M43.1202 1.10585C43.8677 1.30798 43.9751 1.69008 44.012 2.42685C44.0956 4.09785 43.9993 5.78271 43.988 7.45761L43.9797 17.752C43.9788 19.3655 43.9522 21.0643 43.9593 22.7059C43.9334 25.7905 46.7095 25.858 47.8826 23.3224C48.1823 22.6747 48.3045 21.7054 49.0969 21.6708C49.228 21.6651 49.3427 21.8475 49.3387 22.0858C49.3014 24.3471 47.2332 27.4316 44.8405 27.5942C41.9217 27.7527 40.1045 26.3052 39.7943 23.1053C39.2546 17.5397 39.9942 11.5074 39.5664 5.91199C39.4128 3.9029 36.7557 5.13901 35.7981 5.01262C35.652 4.99335 35.5342 4.88755 35.4856 4.7485C35.4231 4.56956 35.4301 4.39122 35.4634 4.3342C35.7614 3.82439 42.1486 1.3822 43.1202 1.10585Z" fill="white"/>
<path fill-rule="evenodd" clip-rule="evenodd" d="M77.8849 0.106203C79.0469 -0.0502416 81.1167 0.161536 82.2618 0.432375C84.9629 1.07133 86.6237 2.87691 87.8937 5.25366C88.3206 6.0525 88.6907 6.90534 89.1613 7.6814C89.7378 6.46312 91.031 2.02046 91.4728 0.542727L96.7218 0.546633L96.713 1.94995C94.8327 4.56293 93.4008 7.65331 92.0343 10.5603C91.6193 11.443 91.0865 12.3855 90.8497 13.3328C90.4673 14.8638 91.9478 21.9402 92.8732 23.4636C93.21 24.0179 93.6818 24.604 94.34 24.7605C95.757 25.0975 96.9435 24.2572 98.0822 23.5505L99.2911 25.2693C97.4144 26.708 96.1386 27.2995 93.8761 27.8191C88.4569 28.782 87.5564 23.8346 86.7052 19.8435C85.8917 21.1806 85.2313 22.2073 84.2784 23.4753C80.9317 27.9288 74.7628 29.5635 70.1691 25.9363C67.5415 23.7371 66.7002 20.5363 66.3029 17.2966C65.3136 9.22985 68.9425 0.997235 77.8849 0.106203ZM85.7872 10.6951C85.1219 7.08129 83.5651 1.98295 78.9025 2.33667C77.1204 2.50605 75.8506 3.0898 74.7023 4.51831C72.382 7.40468 71.9564 11.0945 71.9816 14.6843C72.0092 18.5987 72.763 24.9023 78.0695 24.491C78.4467 24.4617 78.8867 24.3689 79.2648 24.3005C81.8207 23.4166 83.2998 21.6045 84.4777 19.198C85.2339 17.4928 86.0826 15.4949 86.2218 13.6267C86.2777 12.8752 85.93 11.4704 85.7872 10.6951Z" fill="white"/>
<path d="M108.934 1.10609C109.681 1.30822 109.789 1.69032 109.826 2.42708C109.909 4.09808 109.813 5.78294 109.802 7.45785L109.793 17.7523C109.792 19.3657 109.766 21.0645 109.773 22.7061C109.747 25.7908 112.523 25.8582 113.696 23.3226C113.996 22.675 114.118 21.7057 114.911 21.6711C115.042 21.6653 115.156 21.8477 115.152 22.086C115.115 24.3474 113.047 27.4319 110.654 27.5944C107.735 27.753 105.918 26.3055 105.608 23.1055C105.068 17.5399 105.808 11.5077 105.38 5.91223C105.226 3.90314 102.569 5.13924 101.612 5.01286C101.466 4.99358 101.348 4.88779 101.299 4.74873C101.237 4.5698 101.244 4.39146 101.277 4.33443C101.575 3.82462 107.962 1.38244 108.934 1.10609Z" fill="white"/>
<path fill-rule="evenodd" clip-rule="evenodd" d="M142.813 0.106073C143.975 -0.0503098 146.043 0.161449 147.189 0.432245C149.89 1.07109 151.551 2.87575 152.821 5.25256C153.248 6.05158 153.618 6.90502 154.089 7.68127C154.666 6.46302 155.959 2.02034 156.401 0.542597L161.649 0.546503L161.64 1.94982C159.759 4.56289 158.328 7.65311 156.961 10.5602C156.546 11.4429 156.014 12.3854 155.777 13.3326C155.395 14.8637 156.876 21.9404 157.801 23.4635C158.138 24.0178 158.609 24.6039 159.268 24.7604C160.685 25.0973 161.871 24.257 163.01 23.5504L164.219 25.2692C162.342 26.7079 161.066 27.2994 158.804 27.819C153.385 28.7819 152.484 23.8345 151.633 19.8434C150.819 21.1804 150.159 22.2063 149.206 23.4742C145.86 27.928 139.691 29.5626 135.097 25.9352C132.469 23.736 131.628 20.5361 131.231 17.2965C130.241 9.22968 133.87 0.99711 142.813 0.106073ZM150.715 10.6949C150.05 7.08124 148.493 1.98307 143.83 2.33654C142.048 2.50592 140.778 3.0897 139.63 4.51818C137.31 7.40458 136.884 11.0943 136.909 14.6842C136.937 18.5986 137.691 24.9024 142.997 24.4908C143.375 24.4615 143.814 24.3688 144.193 24.3004C146.748 23.4165 148.227 21.6043 149.404 19.1979C150.161 17.4927 151.01 15.4949 151.15 13.6266C151.205 12.8751 150.858 11.4703 150.715 10.6949Z" fill="white"/>
<path d="M173.861 1.10598C174.609 1.30811 174.716 1.69021 174.753 2.42698C174.837 4.09798 174.74 5.78284 174.729 7.45774L174.721 17.7522C174.72 19.3656 174.693 21.0644 174.7 22.706C174.675 25.7906 177.451 25.8581 178.624 23.3225C178.923 22.6749 179.046 21.7056 179.838 21.671C179.969 21.6652 180.084 21.8476 180.08 22.0859C180.043 24.3473 177.974 27.4317 175.582 27.5943C172.663 27.7529 170.846 26.3054 170.535 23.1054C169.996 17.5398 170.735 11.5076 170.307 5.91212C170.154 3.90303 167.497 5.13913 166.539 5.01275C166.393 4.99348 166.275 4.88768 166.227 4.74863C166.164 4.56969 166.171 4.39135 166.205 4.33433C166.502 3.82451 172.89 1.38233 173.861 1.10598Z" fill="white"/>
<path d="M53.9709 20.087L59.4492 14L53.9709 8.31884" stroke="white" stroke-width="1.62319" stroke-linecap="round" stroke-linejoin="round"/>
<path d="M119.785 20.087L125.263 14L119.785 8.31884" stroke="white" stroke-width="1.62319" stroke-linecap="round" stroke-linejoin="round"/>
</g>
<defs>
<clipPath id="clip0_0_39">
<rect width="180.174" height="28" fill="white"/>
</clipPath>
</defs>
</svg>
