<svg width="24" height="24" viewBox="0 0 24 24" fill="none" xmlns="http://www.w3.org/2000/svg">
<path d="M4.5 16.5C3 17.76 2.5 21.5 2.5 21.5C2.5 21.5 6.24 21 7.5 19.5C8.21 18.66 8.2 17.37 7.41 16.59C7.02131 16.219 6.50929 16.0046 5.97223 15.988C5.43516 15.9714 4.91088 16.1537 4.5 16.5Z" stroke="#4A99F5" stroke-width="2" stroke-linecap="round" stroke-linejoin="round"/>
<path d="M12 14.9999L9 11.9999C9.53214 10.6193 10.2022 9.29595 11 8.04988C12.1652 6.18687 13.7876 4.65293 15.713 3.59397C17.6384 2.53502 19.8027 1.98625 22 1.99988C22 4.71988 21.22 9.49988 16 12.9999C14.7369 13.7986 13.3968 14.4686 12 14.9999Z" stroke="#4A99F5" stroke-width="2" stroke-linecap="round" stroke-linejoin="round"/>
<path d="M9 12H4C4 12 4.55 8.97002 6 8.00002C7.62 6.92002 11 8.00002 11 8.00002" stroke="#4A99F5" stroke-width="2" stroke-linecap="round" stroke-linejoin="round"/>
<path d="M12 15V20C12 20 15.03 19.45 16 18C17.08 16.38 16 13 16 13" stroke="#4A99F5" stroke-width="2" stroke-linecap="round" stroke-linejoin="round"/>
</svg>
