<svg width="24" height="24" viewBox="0 0 24 24" fill="none" xmlns="http://www.w3.org/2000/svg">
<path d="M11 17L13 19C13.197 19.197 13.4308 19.3532 13.6882 19.4598C13.9456 19.5665 14.2214 19.6213 14.5 19.6213C14.7786 19.6213 15.0544 19.5665 15.3118 19.4598C15.5692 19.3532 15.803 19.197 16 19C16.197 18.803 16.3532 18.5692 16.4598 18.3118C16.5665 18.0544 16.6213 17.7786 16.6213 17.5C16.6213 17.2214 16.5665 16.9456 16.4598 16.6882C16.3532 16.4308 16.197 16.197 16 16" stroke="#4A99F5" stroke-width="2" stroke-linecap="round" stroke-linejoin="round"/>
<path d="M13.9997 14L16.4997 16.5C16.8976 16.8978 17.4371 17.1213 17.9997 17.1213C18.5623 17.1213 19.1019 16.8978 19.4997 16.5C19.8976 16.1022 20.1211 15.5626 20.1211 15C20.1211 14.4374 19.8976 13.8978 19.4997 13.5L15.6197 9.62001C15.0572 9.05821 14.2947 8.74265 13.4997 8.74265C12.7047 8.74265 11.9422 9.05821 11.3797 9.62001L10.4997 10.5C10.1019 10.8978 9.56235 11.1213 8.99974 11.1213C8.43713 11.1213 7.89756 10.8978 7.49974 10.5C7.10191 10.1022 6.87842 9.56262 6.87842 9.00001C6.87842 8.43741 7.10191 7.89784 7.49974 7.50001L10.3097 4.69002C11.222 3.78016 12.4116 3.20057 13.6904 3.04299C14.9691 2.88541 16.2639 3.15885 17.3697 3.82002L17.8397 4.10002C18.2655 4.357 18.7718 4.44613 19.2597 4.35002L20.9997 4.00002" stroke="#4A99F5" stroke-width="2" stroke-linecap="round" stroke-linejoin="round"/>
<path d="M21 3L22 14H20" stroke="#4A99F5" stroke-width="2" stroke-linecap="round" stroke-linejoin="round"/>
<path d="M3 3L2 14L8.5 20.5C8.89782 20.8978 9.43739 21.1213 10 21.1213C10.5626 21.1213 11.1022 20.8978 11.5 20.5C11.8978 20.1022 12.1213 19.5626 12.1213 19C12.1213 18.4374 11.8978 17.8978 11.5 17.5" stroke="#4A99F5" stroke-width="2" stroke-linecap="round" stroke-linejoin="round"/>
<path d="M3 4H11" stroke="#4A99F5" stroke-width="2" stroke-linecap="round" stroke-linejoin="round"/>
</svg>
