<svg width="72" height="72" viewBox="0 0 72 72" fill="none" xmlns="http://www.w3.org/2000/svg">
<g filter="url(#filter0_d_104_2119)">
<rect x="12" y="10" width="48" height="48" rx="12" fill="url(#paint0_linear_104_2119)" shape-rendering="crispEdges"/>
<path d="M39 23.9999H30C29.4696 23.9999 28.9609 24.2106 28.5858 24.5857C28.2107 24.9607 28 25.4694 28 25.9999V41.9999C28 42.5303 28.2107 43.039 28.5858 43.4141C28.9609 43.7892 29.4696 43.9999 30 43.9999H42C42.5304 43.9999 43.0391 43.7892 43.4142 43.4141C43.7893 43.039 44 42.5303 44 41.9999V28.9999L39 23.9999Z" stroke="white" stroke-width="2" stroke-linecap="round" stroke-linejoin="round"/>
<path d="M38 23.9999V27.9999C38 28.5303 38.2107 29.039 38.5858 29.4141C38.9609 29.7892 39.4696 29.9999 40 29.9999H44" stroke="white" stroke-width="2" stroke-linecap="round" stroke-linejoin="round"/>
<path d="M33 37.0001L35 39.0001L39 35.0001" stroke="white" stroke-width="2" stroke-linecap="round" stroke-linejoin="round"/>
</g>
<defs>
<filter id="filter0_d_104_2119" x="0" y="0" width="72" height="72" filterUnits="userSpaceOnUse" color-interpolation-filters="sRGB">
<feFlood flood-opacity="0" result="BackgroundImageFix"/>
<feColorMatrix in="SourceAlpha" type="matrix" values="0 0 0 0 0 0 0 0 0 0 0 0 0 0 0 0 0 0 127 0" result="hardAlpha"/>
<feOffset dy="2"/>
<feGaussianBlur stdDeviation="6"/>
<feComposite in2="hardAlpha" operator="out"/>
<feColorMatrix type="matrix" values="0 0 0 0 0.483333 0 0 0 0 0 0 0 0 0 1 0 0 0 0.8 0"/>
<feBlend mode="normal" in2="BackgroundImageFix" result="effect1_dropShadow_104_2119"/>
<feBlend mode="normal" in="SourceGraphic" in2="effect1_dropShadow_104_2119" result="shape"/>
</filter>
<linearGradient id="paint0_linear_104_2119" x1="12" y1="34" x2="60" y2="34" gradientUnits="userSpaceOnUse">
<stop stop-color="#8E51FF"/>
<stop offset="1" stop-color="#AD46FF"/>
</linearGradient>
</defs>
</svg>
