<svg width="390" height="100" viewBox="0 0 390 100" fill="none" xmlns="http://www.w3.org/2000/svg">
<line y1="49.5" x2="158.667" y2="49.5" stroke="#1A4494"/>
<g filter="url(#filter0_d_117_18250)">
<path d="M168.667 40C168.667 31.1634 175.83 24 184.667 24H204.667C213.504 24 220.667 31.1634 220.667 40V60C220.667 68.8366 213.504 76 204.667 76H184.667C175.83 76 168.667 68.8366 168.667 60V40Z" fill="url(#paint0_linear_117_18250)" shape-rendering="crispEdges"/>
<path d="M194.667 60C200.19 60 204.667 55.5228 204.667 50C204.667 44.4772 200.19 40 194.667 40C189.144 40 184.667 44.4772 184.667 50C184.667 55.5228 189.144 60 194.667 60Z" stroke="white" stroke-width="2" stroke-linecap="round" stroke-linejoin="round"/>
<path d="M194.667 56C197.981 56 200.667 53.3137 200.667 50C200.667 46.6863 197.981 44 194.667 44C191.353 44 188.667 46.6863 188.667 50C188.667 53.3137 191.353 56 194.667 56Z" stroke="white" stroke-width="2" stroke-linecap="round" stroke-linejoin="round"/>
<path d="M194.667 52C195.772 52 196.667 51.1046 196.667 50C196.667 48.8954 195.772 48 194.667 48C193.562 48 192.667 48.8954 192.667 50C192.667 51.1046 193.562 52 194.667 52Z" stroke="white" stroke-width="2" stroke-linecap="round" stroke-linejoin="round"/>
</g>
<line x1="230.667" y1="49.5" x2="389.334" y2="49.5" stroke="#1A4494"/>
<defs>
<filter id="filter0_d_117_18250" x="144.667" y="0" width="100" height="100" filterUnits="userSpaceOnUse" color-interpolation-filters="sRGB">
<feFlood flood-opacity="0" result="BackgroundImageFix"/>
<feColorMatrix in="SourceAlpha" type="matrix" values="0 0 0 0 0 0 0 0 0 0 0 0 0 0 0 0 0 0 127 0" result="hardAlpha"/>
<feOffset/>
<feGaussianBlur stdDeviation="12"/>
<feComposite in2="hardAlpha" operator="out"/>
<feColorMatrix type="matrix" values="0 0 0 0 0.231373 0 0 0 0 0.509804 0 0 0 0 0.964706 0 0 0 0.4 0"/>
<feBlend mode="normal" in2="BackgroundImageFix" result="effect1_dropShadow_117_18250"/>
<feBlend mode="normal" in="SourceGraphic" in2="effect1_dropShadow_117_18250" result="shape"/>
</filter>
<linearGradient id="paint0_linear_117_18250" x1="168.667" y1="24" x2="220.667" y2="76" gradientUnits="userSpaceOnUse">
<stop stop-color="#1A4494"/>
<stop offset="0.5" stop-color="#2D7AE8"/>
<stop offset="1" stop-color="#4A99F5"/>
</linearGradient>
</defs>
</svg>
